Coordinates
version=1
nRows=8
nColumns=40
inDegrees=yes

Units are S.I. units (second, meters, Newtons, ...)
If the header above contains a line with 'inDegrees', this indicates whether rotational values are in degrees (yes) or radians (no).

endheader
time	pelvis_tilt	pelvis_list	pelvis_rotation	pelvis_tx	pelvis_ty	pelvis_tz	hip_flexion_r	hip_adduction_r	hip_rotation_r	knee_angle_r	knee_angle_r_beta	ankle_angle_r	subtalar_angle_r	mtp_angle_r	hip_flexion_l	hip_adduction_l	hip_rotation_l	knee_angle_l	knee_angle_l_beta	ankle_angle_l	subtalar_angle_l	mtp_angle_l	lumbar_extension	lumbar_bending	lumbar_rotation	arm_flex_r	arm_add_r	arm_rot_r	elbow_flex_r	pro_sup_r	wrist_flex_r	wrist_dev_r	arm_flex_l	arm_add_l	arm_rot_l	elbow_flex_l	pro_sup_l	wrist_flex_l	wrist_dev_l
      0.16000000	     -6.56438751	     -1.29579641	     -4.70800328	     -1.00136096	      0.91669473	      0.29561020	     -2.56358175	     -1.50334583	     -2.92167042	     39.41953515	      0.68800068	     -4.85132305	      0.00000000	      0.00000000	     31.20811774	     -2.61462003	     -3.31139236	     26.78036707	      0.46740558	      2.22222446	      0.00000000	      0.00000000	     -1.78957431	     -3.99822454	     13.49877597	     -8.66911947	     -5.30639129	     -7.16195198	     57.05400087	     89.18362431	      7.37726264	     16.89578876	    -16.23154379	     -5.09885366	      2.84014544	     18.64612703	     89.33966164	    -19.61547269	      8.96022023
      0.17000000	     -6.47493828	     -0.73957502	     -4.48080024	     -0.98766471	      0.91867875	      0.29316037	     -0.99959491	     -2.52848924	     -3.29735669	     42.74257679	      0.74599870	     -6.39549379	      0.00000000	      0.00000000	     30.23301037	     -1.75529688	     -3.23633720	     26.72651262	      0.46646564	      3.00908667	      0.00000000	      0.00000000	     -2.00202511	     -4.53585174	     13.26184834	     -9.07558444	     -5.20229088	     -7.14597011	     56.30446631	     89.21256966	      7.49629392	     17.17328995	    -15.56403902	     -5.14666427	      2.70289681	     19.29520269	     89.34365770	    -19.72020772	      8.68918992
      0.18000000	     -6.65930810	      0.19932393	     -4.39890369	     -0.97424002	      0.92036551	      0.29115633	      1.03306030	     -3.92375840	     -3.47399795	     46.10612266	      0.80470365	     -7.17328433	      0.00000000	      0.00000000	     29.41160229	     -0.64657521	     -3.56992752	     26.32792345	      0.45950895	      3.66298127	      0.00000000	      0.00000000	     -1.85601953	     -5.50502159	     13.04021116	     -9.34473389	     -5.05968069	     -6.93351043	     55.35321729	     89.23781137	      7.76577525	     17.81302539	    -14.99877716	     -5.21636920	      2.14162784	     20.21051624	     89.35058395	    -20.10329434	      8.20156121
      0.19000000	     -6.88610151	      1.18930123	     -4.42896532	     -0.96123866	      0.92190201	      0.28996373	      3.23625147	     -5.20971862	     -3.21826134	     49.39644158	      0.86213054	     -6.93524180	      0.00000000	      0.00000000	     28.59293275	      0.40625363	     -4.13980108	     25.79206602	      0.45015647	      4.10055985	      0.00000000	      0.00000000	     -1.63578654	     -6.78956055	     11.00143845	     -8.10264869	     -5.12896995	     -4.76626866	     53.28056615	     89.24501078	     10.26581314	     20.47852065	    -15.96417450	     -4.73944898	     -2.50347703	     22.86398811	     89.39041335	    -21.05542344	      7.28609750
      0.20000000	     -7.20300123	      1.83417716	     -4.42518565	     -0.94868479	      0.92361528	      0.28829306	      5.57819660	     -6.08802153	     -2.89974410	     52.39276464	      0.91442625	     -6.55135318	      0.00000000	      0.00000000	     27.84946893	      1.20716425	     -4.33307351	     25.18697217	      0.43959559	      4.64663171	      0.00000000	      0.00000000	     -1.42288236	     -7.44194529	     10.62704249	     -8.15073216	     -5.12573765	     -4.22899274	     52.31059586	     89.26947531	     10.55319928	     21.37474907	    -15.37445647	     -4.71285950	     -3.25464347	     23.93858285	     89.39786246	    -21.40741840	      6.80567571
      0.21000000	     -7.42687789	      2.32145377	     -4.28868104	     -0.93647986	      0.92545574	      0.28671112	      7.81906157	     -6.73417495	     -2.67250226	     55.08637069	      0.96143854	     -5.75391605	      0.00000000	      0.00000000	     27.00191238	      1.92788739	     -4.28396533	     24.53468404	      0.42821102	      5.22931831	      0.00000000	      0.00000000	     -1.38958382	     -8.04052874	      9.31065725	     -7.55575494	     -5.23714952	     -2.84299733	     50.99152517	     89.28349029	     11.96594992	     23.09799808	    -15.34888371	     -4.44683039	     -5.48797951	     25.76595949	     89.41271115	    -21.93568144	      6.03722825
      0.22000000	     -7.75123424	      2.70825995	     -4.26012810	     -0.92456877	      0.92727036	      0.28529575	     10.21587498	     -7.17962881	     -2.29790642	     57.48171879	      1.00324525	     -4.57377402	      0.00000000	      0.00000000	     26.22032105	      2.49745603	     -4.27867789	     23.78419475	      0.41511251	      5.69290183	      0.00000000	      0.00000000	     -1.23918488	     -8.45149023	      8.53471736	     -7.27888265	     -5.33774659	     -1.90905760	     49.95917109	     89.30040459	     12.84102501	     24.39689842	    -14.91323432	     -4.32025648	     -6.81909435	     27.24984810	     89.42367447	    -22.02516039	      5.62872016
      0.23000000	     -8.07133967	      2.99817925	     -4.25078675	     -0.91279655	      0.92917176	      0.28384040	     12.60273199	     -7.46949440	     -1.94372727	     59.52024151	      1.03882419	     -3.14255436	      0.00000000	      0.00000000	     25.40077881	      2.98127601	     -4.20000648	     22.95448743	      0.40063138	      6.00578148	      0.00000000	      0.00000000	     -1.08853431	     -8.69572963	      8.22310405	     -7.35290531	     -5.43160798	     -1.47013912	     49.25199574	     89.32193589	     13.11685614	     25.15692359	    -14.08887364	     -4.31720353	     -7.26698898	     28.40145733	     89.42836045	    -22.15462467	      5.25923725
